<svg width="90" height="19" viewBox="0 0 90 19" fill="none" xmlns="http://www.w3.org/2000/svg">
<path d="M8.47013 18.36C6.74213 18.36 5.27013 17.984 4.05413 17.232C2.83813 16.472 1.90613 15.416 1.25813 14.064C0.618125 12.712 0.298125 11.144 0.298125 9.36C0.298125 7.576 0.618125 6.008 1.25813 4.656C1.90613 3.304 2.83813 2.252 4.05413 1.5C5.27013 0.739999 6.74213 0.36 8.47013 0.36C10.4621 0.36 12.1101 0.863999 13.4141 1.872C14.7261 2.88 15.6381 4.236 16.1501 5.94L13.6061 6.624C13.2701 5.416 12.6701 4.468 11.8061 3.78C10.9501 3.092 9.83813 2.748 8.47013 2.748C7.24613 2.748 6.22613 3.024 5.41013 3.576C4.59413 4.128 3.97813 4.9 3.56213 5.892C3.15413 6.884 2.95013 8.04 2.95013 9.36C2.94213 10.68 3.14213 11.836 3.55013 12.828C3.96613 13.82 4.58213 14.592 5.39813 15.144C6.22213 15.696 7.24613 15.972 8.47013 15.972C9.83813 15.972 10.9501 15.628 11.8061 14.94C12.6701 14.244 13.2701 13.296 13.6061 12.096L16.1501 12.78C15.6381 14.484 14.7261 15.84 13.4141 16.848C12.1101 17.856 10.4621 18.36 8.47013 18.36ZM26.0014 18.36C24.2734 18.36 22.8014 17.984 21.5854 17.232C20.3694 16.472 19.4374 15.416 18.7894 14.064C18.1494 12.712 17.8294 11.144 17.8294 9.36C17.8294 7.576 18.1494 6.008 18.7894 4.656C19.4374 3.304 20.3694 2.252 21.5854 1.5C22.8014 0.739999 24.2734 0.36 26.0014 0.36C27.7214 0.36 29.1894 0.739999 30.4054 1.5C31.6294 2.252 32.5614 3.304 33.2014 4.656C33.8414 6.008 34.1614 7.576 34.1614 9.36C34.1614 11.144 33.8414 12.712 33.2014 14.064C32.5614 15.416 31.6294 16.472 30.4054 17.232C29.1894 17.984 27.7214 18.36 26.0014 18.36ZM26.0014 15.972C27.2254 15.988 28.2414 15.72 29.0494 15.168C29.8654 14.608 30.4774 13.832 30.8854 12.84C31.2934 11.84 31.4974 10.68 31.4974 9.36C31.4974 8.04 31.2934 6.888 30.8854 5.904C30.4774 4.912 29.8654 4.14 29.0494 3.588C28.2414 3.036 27.2254 2.756 26.0014 2.748C24.7774 2.732 23.7574 3 22.9414 3.552C22.1334 4.104 21.5254 4.88 21.1174 5.88C20.7094 6.88 20.5014 8.04 20.4934 9.36C20.4854 10.68 20.6854 11.836 21.0934 12.828C21.5014 13.812 22.1134 14.58 22.9294 15.132C23.7534 15.684 24.7774 15.964 26.0014 15.972ZM36.555 18V0.719999H39.099L47.607 13.56V0.719999H50.151V18H47.607L39.099 5.148V18H36.555ZM57.8083 18V3.084H52.0603V0.719999H66.0643V3.084H60.3163V18H57.8083ZM68.2247 18V0.719999H70.7327V18H68.2247ZM87.8843 18.348L83.0603 13.548L84.6683 11.94L89.4683 16.74L87.8843 18.348ZM81.5483 18.36C79.8203 18.36 78.3483 17.984 77.1323 17.232C75.9163 16.472 74.9843 15.416 74.3363 14.064C73.6963 12.712 73.3763 11.144 73.3763 9.36C73.3763 7.576 73.6963 6.008 74.3363 4.656C74.9843 3.304 75.9163 2.252 77.1323 1.5C78.3483 0.739999 79.8203 0.36 81.5483 0.36C83.2683 0.36 84.7363 0.739999 85.9523 1.5C87.1763 2.252 88.1083 3.304 88.7483 4.656C89.3883 6.008 89.7083 7.576 89.7083 9.36C89.7083 11.144 89.3883 12.712 88.7483 14.064C88.1083 15.416 87.1763 16.472 85.9523 17.232C84.7363 17.984 83.2683 18.36 81.5483 18.36ZM81.5483 15.972C82.7723 15.988 83.7883 15.72 84.5963 15.168C85.4123 14.608 86.0243 13.832 86.4323 12.84C86.8403 11.84 87.0443 10.68 87.0443 9.36C87.0443 8.04 86.8403 6.888 86.4323 5.904C86.0243 4.912 85.4123 4.14 84.5963 3.588C83.7883 3.036 82.7723 2.756 81.5483 2.748C80.3243 2.732 79.3043 3 78.4883 3.552C77.6803 4.104 77.0723 4.88 76.6643 5.88C76.2563 6.88 76.0483 8.04 76.0403 9.36C76.0323 10.68 76.2323 11.836 76.6403 12.828C77.0483 13.812 77.6603 14.58 78.4763 15.132C79.3003 15.684 80.3243 15.964 81.5483 15.972Z" fill="#8B3DFF"/>
</svg>
