<svg width="75" height="70" viewBox="0 0 75 70" fill="none" xmlns="http://www.w3.org/2000/svg">
<path d="M36.5744 1.9724C34.0183 0.0777549 30.805 -0.48434 27.7534 0.427285L7.1113 6.59492C2.85881 7.86635 0 11.6902 0 16.1139V60.056C0 63.229 1.4656 66.1347 4.0215 68.0263C6.57786 69.9212 9.79464 70.4831 12.8427 69.5717L28.2521 64.9662C27.7703 63.3833 27.5261 61.7315 27.5261 60.056V40.0999C27.5261 35.9092 29.0606 31.9069 31.8541 28.8367C33.9044 26.5751 36.5641 24.9065 39.5365 24.0157L40.5961 23.7142V9.94602C40.5961 6.77296 39.1305 3.86728 36.5742 1.9724H36.5744Z" fill="#6C5DD3"/>
<path d="M74.9998 33.9319V53.888C74.9998 58.3085 72.1442 62.1358 67.8885 63.4038L47.2464 69.5716C46.2901 69.8593 45.3165 70 44.3531 70C42.244 70 40.1798 69.3285 38.4251 68.0263C37.6235 67.4301 36.9286 66.7413 36.3575 65.9704C35.6626 65.0452 35.143 64.0139 34.8162 62.907C34.8127 62.907 34.8094 62.907 34.8059 62.9103L34.8127 62.9035C34.548 61.9954 34.4034 61.0394 34.4034 60.0559V40.0998C34.4034 38.0507 35.0158 36.1285 36.0963 34.5316C37.1765 32.9347 38.7245 31.6602 40.5961 30.9028C40.8955 30.7829 41.2017 30.673 41.5149 30.5808L44.0402 29.8269L62.1573 24.413C65.2086 23.5013 68.4221 24.0634 70.9783 25.9583C73.5346 27.8532 75 30.7589 75 33.9319H74.9998Z" fill="#6C5DD3"/>
</svg>
